<svg width="100%" height="100%"
     xmlns="http://www.w3.org/2000/svg"
     xmlns:xlink="http://www.w3.org/1999/xlink">

     <ellipse xmlns="http://www.w3.org/2000/svg" cx="120" cy="160" rx="110" ry="145" fill="#964"/>
     <g id="group">
       <path id = "P2" stroke = "black" stroke-width = "2"
       opacity = ".6" fill = "#c77"
       transform="translate(-100,-100)"
       d = "M 150 220
       C 145 244 146 251 135 260 C 124 269 114 287 134 282
       C 154 277 162 279 159 288 C 156 297 135 305 148 308
       C 161 311 185 315 172 315 C 159 315 150 309 147 314
       C 144 319 159 322 156 327 C 153 332 141 348 153 354
       C 165 360 185 361 194 354 C 203 347 214 357 212 368
       C 210 379 196 400 204 400 C 212 400 237 396 250 394
       C 263 392 279 374 276 353 C 273 332 276 308 286 289
       C 296 270 325 240 321 215 C 317 190 304 179 286 158
       C 268 137 253 111 216 120 C 179 129 163 144 150 170
       C 137 196 150 210 160 212 C 170 214 160 222 150 220
       " />
      </g>
     <use xlink:href="#group" transform="rotate(120,219.5,241)" opacity="0.5" />
</svg>